<svg viewBox="0 0 31 31" fill="none" xmlns="http://www.w3.org/2000/svg">
<path d="M15.4667 19.4667C17.6758 19.4667 19.4667 17.6758 19.4667 15.4667C19.4667 13.2575 17.6758 11.4667 15.4667 11.4667C13.2575 11.4667 11.4667 13.2575 11.4667 15.4667C11.4667 17.6758 13.2575 19.4667 15.4667 19.4667Z" stroke="url(#paint0_linear_91_26)" stroke-width="1.6" stroke-linecap="round" stroke-linejoin="round"/>
<path d="M25.3333 19.4667C25.1558 19.8688 25.1029 20.3149 25.1813 20.7474C25.2597 21.18 25.4659 21.5791 25.7733 21.8933L25.8533 21.9733C26.1013 22.221 26.2979 22.5151 26.4321 22.8388C26.5663 23.1625 26.6354 23.5095 26.6354 23.86C26.6354 24.2104 26.5663 24.5574 26.4321 24.8812C26.2979 25.2049 26.1013 25.499 25.8533 25.7467C25.6057 25.9946 25.3116 26.1913 24.9878 26.3255C24.6641 26.4597 24.3171 26.5288 23.9667 26.5288C23.6162 26.5288 23.2692 26.4597 22.9455 26.3255C22.6218 26.1913 22.3276 25.9946 22.08 25.7467L22 25.6667C21.6857 25.3593 21.2866 25.1531 20.8541 25.0746C20.4216 24.9962 19.9755 25.0492 19.5733 25.2267C19.179 25.3957 18.8426 25.6763 18.6057 26.034C18.3688 26.3918 18.2417 26.8109 18.24 27.24V27.4667C18.24 28.1739 17.959 28.8522 17.4589 29.3523C16.9588 29.8524 16.2806 30.1333 15.5733 30.1333C14.8661 30.1333 14.1878 29.8524 13.6877 29.3523C13.1876 28.8522 12.9067 28.1739 12.9067 27.4667V27.3467C12.8963 26.9053 12.7535 26.4773 12.4967 26.1183C12.2399 25.7592 11.881 25.4857 11.4667 25.3333C11.0645 25.1558 10.6184 25.1029 10.1859 25.1813C9.75334 25.2597 9.35423 25.4659 9.03999 25.7733L8.95999 25.8533C8.71233 26.1013 8.41822 26.2979 8.09449 26.4321C7.77077 26.5663 7.42376 26.6354 7.07332 26.6354C6.72288 26.6354 6.37587 26.5663 6.05215 26.4321C5.72842 26.2979 5.43432 26.1013 5.18665 25.8533C4.93872 25.6057 4.74203 25.3116 4.60783 24.9878C4.47363 24.6641 4.40456 24.3171 4.40456 23.9667C4.40456 23.6162 4.47363 23.2692 4.60783 22.9455C4.74203 22.6218 4.93872 22.3276 5.18665 22.08L5.26665 22C5.57404 21.6857 5.78023 21.2866 5.85866 20.8541C5.93709 20.4216 5.88414 19.9755 5.70665 19.5733C5.53764 19.179 5.25699 18.8426 4.89927 18.6057C4.54155 18.3688 4.12237 18.2417 3.69332 18.24H3.46665C2.75941 18.24 2.08113 17.959 1.58104 17.4589C1.08094 16.9588 0.799988 16.2806 0.799988 15.5733C0.799988 14.8661 1.08094 14.1878 1.58104 13.6877C2.08113 13.1876 2.75941 12.9067 3.46665 12.9067H3.58665C4.02798 12.8963 4.45599 12.7535 4.81505 12.4967C5.17411 12.2399 5.44761 11.881 5.59999 11.4667C5.77747 11.0645 5.83042 10.6184 5.75199 10.1859C5.67357 9.75334 5.46737 9.35423 5.15999 9.03999L5.07999 8.95999C4.83205 8.71233 4.63536 8.41822 4.50116 8.09449C4.36696 7.77077 4.29789 7.42376 4.29789 7.07332C4.29789 6.72288 4.36696 6.37587 4.50116 6.05215C4.63536 5.72842 4.83205 5.43432 5.07999 5.18665C5.32765 4.93872 5.62175 4.74203 5.94548 4.60783C6.26921 4.47363 6.61621 4.40456 6.96665 4.40456C7.3171 4.40456 7.6641 4.47363 7.98783 4.60783C8.31156 4.74203 8.60566 4.93872 8.85332 5.18665L8.93332 5.26665C9.24756 5.57404 9.64667 5.78023 10.0792 5.85866C10.5117 5.93709 10.9578 5.88414 11.36 5.70665H11.4667C11.861 5.53764 12.1973 5.25699 12.4342 4.89927C12.6711 4.54155 12.7983 4.12237 12.8 3.69332V3.46665C12.8 2.75941 13.0809 2.08113 13.581 1.58104C14.0811 1.08094 14.7594 0.799988 15.4667 0.799988C16.1739 0.799988 16.8522 1.08094 17.3523 1.58104C17.8524 2.08113 18.1333 2.75941 18.1333 3.46665V3.58665C18.135 4.0157 18.2622 4.43489 18.4991 4.79261C18.736 5.15033 19.0723 5.43097 19.4667 5.59999C19.8688 5.77747 20.3149 5.83042 20.7474 5.75199C21.18 5.67357 21.5791 5.46737 21.8933 5.15999L21.9733 5.07999C22.221 4.83205 22.5151 4.63536 22.8388 4.50116C23.1625 4.36696 23.5095 4.29789 23.86 4.29789C24.2104 4.29789 24.5574 4.36696 24.8812 4.50116C25.2049 4.63536 25.499 4.83205 25.7467 5.07999C25.9946 5.32765 26.1913 5.62175 26.3255 5.94548C26.4597 6.26921 26.5288 6.61621 26.5288 6.96665C26.5288 7.3171 26.4597 7.6641 26.3255 7.98783C26.1913 8.31156 25.9946 8.60566 25.7467 8.85332L25.6667 8.93332C25.3593 9.24756 25.1531 9.64667 25.0746 10.0792C24.9962 10.5117 25.0492 10.9578 25.2267 11.36V11.4667C25.3957 11.861 25.6763 12.1973 26.034 12.4342C26.3918 12.6711 26.8109 12.7983 27.24 12.8H27.4667C28.1739 12.8 28.8522 13.0809 29.3523 13.581C29.8524 14.0811 30.1333 14.7594 30.1333 15.4667C30.1333 16.1739 29.8524 16.8522 29.3523 17.3523C28.8522 17.8524 28.1739 18.1333 27.4667 18.1333H27.3467C26.9176 18.135 26.4984 18.2622 26.1407 18.4991C25.783 18.736 25.5023 19.0723 25.3333 19.4667Z" stroke="url(#paint1_linear_91_26)" stroke-width="1.6" stroke-linecap="round" stroke-linejoin="round"/>
<defs>
<linearGradient id="paint0_linear_91_26" x1="15.4667" y1="0.799988" x2="15.4667" y2="30.1333" gradientUnits="userSpaceOnUse">
<stop stop-color="#4CCEE8"/>
<stop offset="1" stop-color="#3D62D3"/>
</linearGradient>
<linearGradient id="paint1_linear_91_26" x1="15.4667" y1="0.799988" x2="15.4667" y2="30.1333" gradientUnits="userSpaceOnUse">
<stop stop-color="#4CCEE8"/>
<stop offset="1" stop-color="#3D62D3"/>
</linearGradient>
</defs>
</svg>
